<svg width="36" height="36" viewBox="0 0 36 36" fill="none" xmlns="http://www.w3.org/2000/svg">
<rect width="36" height="36" rx="18" fill="#F0899C" fill-opacity="0.1"/>
<g clip-path="url(#clip0_80_2625)">
<path d="M19.3372 19.803C18.9391 20.0684 18.4767 20.2087 18 20.2087C17.5233 20.2087 17.0609 20.0684 16.6629 19.803L10.1065 15.432C10.0702 15.4078 10.0347 15.3825 10 15.3565V22.5189C10 23.3401 10.6664 23.9918 11.4729 23.9918H24.5271C25.3482 23.9918 26 23.3254 26 22.5189V15.3564C25.9652 15.3825 25.9297 15.4079 25.8932 15.4321L19.3372 19.803Z" fill="#F0899C"/>
<path d="M10.6266 14.6518L17.1829 19.0229C17.4311 19.1883 17.7155 19.2711 18 19.2711C18.2844 19.2711 18.5689 19.1883 18.8171 19.0229L25.3734 14.6518C25.7658 14.3904 26 13.9529 26 13.4807C26 12.6688 25.3395 12.0083 24.5276 12.0083H11.4724C10.6605 12.0083 10 12.6688 10 13.4815C10 13.9529 10.2342 14.3904 10.6266 14.6518Z" fill="#F0899C"/>
</g>
<defs>
<clipPath id="clip0_80_2625">
<rect width="16" height="16" fill="white" transform="translate(10 10)"/>
</clipPath>
</defs>
</svg>
