<svg width="40" height="40" viewBox="0 0 40 40" fill="none" xmlns="http://www.w3.org/2000/svg">
<path d="M12.5595 0.00130216C13.8195 0.0416367 15.0395 0.273206 16.2215 0.696347H16.3395C16.4195 0.736345 16.4795 0.780554 16.5195 0.820552C16.9615 0.97002 17.3795 1.13843 17.7795 1.37L18.5395 1.72788C18.8395 1.8963 19.1995 2.20997 19.3995 2.33838C19.5995 2.46259 19.8195 2.59101 19.9995 2.73626C22.2215 0.948968 24.9195 -0.0194135 27.6995 0.00130216C28.9615 0.00130216 30.2215 0.188999 31.4195 0.61214C38.8015 3.13835 41.4615 11.6643 39.2395 19.1166C37.9795 22.9249 35.9195 26.4006 33.2215 29.2404C29.3595 33.1771 25.1215 36.6717 20.5595 39.6821L20.0595 40L19.5395 39.6611C14.9615 36.6717 10.6995 33.1771 6.80154 29.2194C4.12154 26.3795 2.05954 22.9249 0.779545 19.1166C-1.48046 11.6643 1.17955 3.13835 8.64155 0.567931C9.22155 0.357413 9.81955 0.210051 10.4195 0.127949H10.6595C11.2215 0.0416367 11.7795 0.00130216 12.3395 0.00130216H12.5595ZM30.3795 6.654C29.5595 6.35717 28.6595 6.82241 28.3595 7.70659C28.0795 8.59076 28.5195 9.55914 29.3595 9.87281C30.6415 10.3781 31.4995 11.7064 31.4995 13.1779V13.2432C31.4615 13.7253 31.5995 14.1905 31.8795 14.5484C32.1595 14.9063 32.5795 15.1147 33.0195 15.1589C33.8395 15.1358 34.5395 14.4432 34.5995 13.5569V13.3064C34.6595 10.357 32.9615 7.68553 30.3795 6.654Z" fill="#F0899C"/>
</svg>
