<svg width="65" height="65" viewBox="0 0 65 65" fill="none" xmlns="http://www.w3.org/2000/svg">
<circle opacity="0.1" cx="32.536" cy="32.4463" r="32" fill="#F0899C"/>
<path d="M39.0554 23.1861C38.0518 22.2812 36.8664 21.6011 35.5787 21.1915C34.2909 20.7818 32.9305 20.6521 31.5885 20.8108C29.563 21.0421 27.6645 21.9152 26.1704 23.3023C24.6764 24.6895 23.6651 26.518 23.2843 28.5209C22.9035 30.5237 23.1731 32.5958 24.0539 34.4345C24.9346 36.2731 26.3802 37.782 28.1795 38.7406V44.3755C28.1798 44.6737 28.2984 44.9597 28.5093 45.1706C28.7202 45.3815 29.0062 45.5002 29.3045 45.5005H30.4295V46.6255C30.4298 46.9237 30.5484 47.2097 30.7593 47.4206C30.9702 47.6315 31.2562 47.7502 31.5545 47.7505H33.8045C34.1028 47.7502 34.3887 47.6315 34.5997 47.4206C34.8106 47.2097 34.9292 46.9237 34.9295 46.6255V45.5005H36.0545C36.3528 45.5002 36.6387 45.3815 36.8497 45.1706C37.0606 44.9597 37.1792 44.6737 37.1795 44.3755V38.7408C38.5371 38.0178 39.7001 36.9776 40.5695 35.7087C41.4389 34.4398 41.9891 32.9797 42.1733 31.4526C42.3575 29.9255 42.1702 28.3765 41.6274 26.9373C41.0845 25.4981 40.2022 24.2112 39.0554 23.1861ZM36.0545 41.0005V42.1255H29.3045V41.0005H36.0545ZM33.8053 46.6255H31.5545V45.5005H33.8048L33.8053 46.6255ZM34.367 44.3755H29.3045V43.2505H36.0545V44.3755H34.367ZM36.3703 37.8911C36.2756 37.9372 36.1957 38.0091 36.1399 38.0984C36.0841 38.1878 36.0545 38.291 36.0545 38.3964V39.8755H33.242V37.2959L34.7647 35.7731C34.8671 35.6671 34.9238 35.525 34.9226 35.3775C34.9213 35.23 34.8621 35.0889 34.7578 34.9846C34.6535 34.8803 34.5124 34.8212 34.365 34.8199C34.2175 34.8186 34.0754 34.8753 33.9693 34.9778L32.6795 36.2675L31.3897 34.9778C31.2836 34.8753 31.1415 34.8186 30.994 34.8199C30.8465 34.8212 30.7054 34.8803 30.6011 34.9846C30.4969 35.0889 30.4377 35.23 30.4364 35.3775C30.4351 35.525 30.4918 35.6671 30.5943 35.7731L32.117 37.2959V39.8755H29.3045V38.3964C29.3045 38.291 29.2749 38.1878 29.2191 38.0984C29.1632 38.0091 29.0834 37.9372 28.9886 37.8911C27.3466 37.0936 26.0077 35.7848 25.1732 34.1613C24.3386 32.5378 24.0535 30.6873 24.3606 28.8879C24.6677 27.0885 25.5504 25.4373 26.8762 24.1825C28.202 22.9277 29.8991 22.137 31.7127 21.9293C32.0376 21.893 32.3642 21.8747 32.691 21.8746C34.7645 21.8684 36.7659 22.6348 38.305 24.0242C39.3368 24.9463 40.1256 26.1083 40.6019 27.4074C41.0782 28.7066 41.2273 30.1031 41.0361 31.4736C40.8449 32.844 40.3192 34.1464 39.5055 35.2655C38.6918 36.3847 37.615 37.2864 36.3703 37.8909V37.8911Z" fill="#F0899C"/>
<path d="M32.6794 19.625C32.8286 19.625 32.9717 19.5657 33.0772 19.4602C33.1827 19.3548 33.2419 19.2117 33.2419 19.0625V16.8125C33.2419 16.6633 33.1827 16.5202 33.0772 16.4148C32.9717 16.3093 32.8286 16.25 32.6794 16.25C32.5303 16.25 32.3872 16.3093 32.2817 16.4148C32.1762 16.5202 32.1169 16.6633 32.1169 16.8125V19.0625C32.1169 19.2117 32.1762 19.3548 32.2817 19.4602C32.3872 19.5657 32.5303 19.625 32.6794 19.625Z" fill="#F0899C"/>
<path d="M24.3268 22.7555C24.3787 22.8092 24.4407 22.852 24.5094 22.8815C24.578 22.911 24.6518 22.9265 24.7265 22.9272C24.8012 22.9278 24.8752 22.9136 24.9444 22.8853C25.0135 22.857 25.0763 22.8152 25.1291 22.7624C25.1819 22.7096 25.2237 22.6468 25.252 22.5777C25.2803 22.5085 25.2945 22.4345 25.2939 22.3598C25.2932 22.2851 25.2777 22.2113 25.2482 22.1427C25.2187 22.074 25.1759 22.012 25.1222 21.9601L23.5311 20.369C23.4792 20.3153 23.4171 20.2724 23.3485 20.2429C23.2799 20.2135 23.206 20.1979 23.1314 20.1973C23.0567 20.1966 22.9826 20.2109 22.9135 20.2392C22.8443 20.2674 22.7815 20.3092 22.7287 20.362C22.6759 20.4148 22.6341 20.4776 22.6059 20.5468C22.5776 20.6159 22.5633 20.69 22.564 20.7647C22.5646 20.8393 22.5802 20.9132 22.6096 20.9818C22.6391 21.0504 22.682 21.1125 22.7357 21.1644L24.3268 22.7555Z" fill="#F0899C"/>
<path d="M21.4294 29.75H19.1794C19.0303 29.75 18.8872 29.8093 18.7817 29.9148C18.6762 30.0202 18.6169 30.1633 18.6169 30.3125C18.6169 30.4617 18.6762 30.6048 18.7817 30.7102C18.8872 30.8157 19.0303 30.875 19.1794 30.875H21.4294C21.5786 30.875 21.7217 30.8157 21.8272 30.7102C21.9327 30.6048 21.9919 30.4617 21.9919 30.3125C21.9919 30.1633 21.9327 30.0202 21.8272 29.9148C21.7217 29.8093 21.5786 29.75 21.4294 29.75Z" fill="#F0899C"/>
<path d="M24.3268 37.8698L22.7357 39.4609C22.682 39.5128 22.6391 39.5749 22.6096 39.6435C22.5802 39.7121 22.5646 39.7859 22.564 39.8606C22.5633 39.9353 22.5776 40.0094 22.6059 40.0785C22.6341 40.1476 22.6759 40.2104 22.7287 40.2632C22.7815 40.3161 22.8443 40.3578 22.9135 40.3861C22.9826 40.4144 23.0567 40.4286 23.1314 40.428C23.206 40.4273 23.2799 40.4118 23.3485 40.3823C23.4171 40.3529 23.4792 40.31 23.5311 40.2563L25.1222 38.6652C25.2246 38.5591 25.2813 38.417 25.28 38.2695C25.2787 38.122 25.2196 37.981 25.1153 37.8767C25.011 37.7724 24.8699 37.7132 24.7224 37.7119C24.575 37.7107 24.4329 37.7674 24.3268 37.8698Z" fill="#F0899C"/>
<path d="M41.8278 20.369L40.2367 21.9601C40.1829 22.012 40.1401 22.074 40.1106 22.1427C40.0811 22.2113 40.0656 22.2851 40.065 22.3598C40.0643 22.4345 40.0785 22.5085 40.1068 22.5777C40.1351 22.6468 40.1769 22.7096 40.2297 22.7624C40.2825 22.8152 40.3453 22.857 40.4144 22.8853C40.4836 22.9136 40.5576 22.9278 40.6323 22.9272C40.707 22.9265 40.7808 22.911 40.8495 22.8815C40.9181 22.852 40.9802 22.8092 41.032 22.7555L42.6231 21.1644C42.6769 21.1125 42.7197 21.0504 42.7492 20.9818C42.7787 20.9132 42.7942 20.8393 42.7948 20.7647C42.7955 20.69 42.7813 20.6159 42.753 20.5468C42.7247 20.4776 42.6829 20.4148 42.6301 20.362C42.5773 20.3092 42.5145 20.2674 42.4454 20.2392C42.3762 20.2109 42.3022 20.1966 42.2275 20.1973C42.1528 20.1979 42.079 20.2135 42.0103 20.2429C41.9417 20.2724 41.8796 20.3153 41.8278 20.369Z" fill="#F0899C"/>
<path d="M41.032 37.8698C40.9259 37.7674 40.7838 37.7107 40.6363 37.7119C40.4889 37.7132 40.3478 37.7724 40.2435 37.8767C40.1392 37.981 40.08 38.122 40.0788 38.2695C40.0775 38.417 40.1342 38.5591 40.2366 38.6652L41.8277 40.2563C41.9338 40.3587 42.0759 40.4154 42.2234 40.4142C42.3709 40.4129 42.512 40.3537 42.6162 40.2494C42.7205 40.1451 42.7797 40.0041 42.781 39.8566C42.7823 39.7091 42.7256 39.567 42.6231 39.4609L41.032 37.8698Z" fill="#F0899C"/>
<path d="M46.1794 29.75H43.9294C43.7803 29.75 43.6372 29.8093 43.5317 29.9148C43.4262 30.0202 43.3669 30.1633 43.3669 30.3125C43.3669 30.4617 43.4262 30.6048 43.5317 30.7102C43.6372 30.8157 43.7803 30.875 43.9294 30.875H46.1794C46.3286 30.875 46.4717 30.8157 46.5772 30.7102C46.6827 30.6048 46.7419 30.4617 46.7419 30.3125C46.7419 30.1633 46.6827 30.0202 46.5772 29.9148C46.4717 29.8093 46.3286 29.75 46.1794 29.75Z" fill="#F0899C"/>
</svg>
