<svg width="36" height="36" viewBox="0 0 36 36" fill="none" xmlns="http://www.w3.org/2000/svg">
<rect width="36" height="36" rx="18" fill="#F0899C" fill-opacity="0.1"/>
<g clip-path="url(#clip0_80_2610)">
<path d="M18 10C16.4093 10.0021 14.8845 10.6349 13.7597 11.7597C12.6349 12.8845 12.0021 14.4093 12 16C12 20.3075 17.59 25.7025 17.8275 25.93C17.8737 25.9749 17.9356 26 18 26C18.0644 26 18.1263 25.9749 18.1725 25.93C18.41 25.7025 24 20.3075 24 16C23.9979 14.4093 23.3651 12.8845 22.2403 11.7597C21.1155 10.6349 19.5907 10.0021 18 10V10ZM18 18.75C17.4561 18.75 16.9244 18.5887 16.4722 18.2865C16.0199 17.9844 15.6675 17.5549 15.4593 17.0524C15.2512 16.5499 15.1967 15.9969 15.3028 15.4635C15.409 14.9301 15.6709 14.4401 16.0555 14.0555C16.4401 13.6709 16.9301 13.4089 17.4635 13.3028C17.9969 13.1967 18.5499 13.2512 19.0524 13.4593C19.5549 13.6675 19.9844 14.0199 20.2865 14.4722C20.5887 14.9244 20.75 15.4561 20.75 16C20.7496 16.7292 20.4597 17.4284 19.9441 17.9441C19.4284 18.4597 18.7292 18.7496 18 18.75Z" fill="#F0899C"/>
</g>
<defs>
<clipPath id="clip0_80_2610">
<rect width="16" height="16" fill="white" transform="translate(10 10)"/>
</clipPath>
</defs>
</svg>
