<svg width="80" height="17" viewBox="0 0 80 17" fill="none" xmlns="http://www.w3.org/2000/svg">
<path d="M5.054 16.171C3.96467 16.171 3.116 15.943 2.508 15.487C1.91267 15.031 1.49467 14.4167 1.254 13.644C1.026 12.8713 0.912 12.01 0.912 11.06V5.626C0.912 4.58733 1.026 3.68167 1.254 2.909C1.49467 2.13633 1.91267 1.541 2.508 1.123C3.116 0.692333 3.96467 0.476999 5.054 0.476999C6.01667 0.476999 6.77667 0.654333 7.334 1.009C7.904 1.36367 8.30933 1.87033 8.55 2.529C8.80333 3.18767 8.93 3.97933 8.93 4.904V6.12H6.897V5.037C6.897 4.467 6.86533 3.96667 6.802 3.536C6.75133 3.09267 6.59933 2.75067 6.346 2.51C6.09267 2.26933 5.66833 2.149 5.073 2.149C4.465 2.149 4.02167 2.282 3.743 2.548C3.46433 2.80133 3.28067 3.16867 3.192 3.65C3.116 4.11867 3.078 4.66967 3.078 5.303V11.402C3.078 12.1747 3.14133 12.789 3.268 13.245C3.39467 13.6883 3.60367 14.005 3.895 14.195C4.18633 14.385 4.579 14.48 5.073 14.48C5.65567 14.48 6.07367 14.3533 6.327 14.1C6.58033 13.834 6.73867 13.473 6.802 13.017C6.86533 12.561 6.897 12.029 6.897 11.421V10.281H8.93V11.421C8.93 12.3583 8.816 13.188 8.588 13.91C8.36 14.6193 7.96733 15.1767 7.41 15.582C6.85267 15.9747 6.06733 16.171 5.054 16.171ZM13.7303 16.152C13.2997 16.152 12.9197 16.0317 12.5903 15.791C12.261 15.5377 12.0013 15.221 11.8113 14.841C11.6213 14.4483 11.5263 14.0367 11.5263 13.606C11.5263 12.922 11.6403 12.3457 11.8683 11.877C12.0963 11.4083 12.4067 11.0157 12.7993 10.699C13.2047 10.3697 13.667 10.0847 14.1863 9.844C14.7183 9.60333 15.2757 9.369 15.8583 9.141V8.362C15.8583 7.91867 15.833 7.55133 15.7823 7.26C15.7317 6.96867 15.624 6.75333 15.4593 6.614C15.3073 6.462 15.073 6.386 14.7563 6.386C14.4777 6.386 14.2497 6.44933 14.0723 6.576C13.9077 6.70267 13.7873 6.88633 13.7113 7.127C13.6353 7.355 13.5973 7.62733 13.5973 7.944V8.495L11.5833 8.419C11.6087 7.203 11.8873 6.31 12.4193 5.74C12.9513 5.15733 13.7747 4.866 14.8893 4.866C15.9787 4.866 16.7513 5.16367 17.2073 5.759C17.6633 6.35433 17.8913 7.21567 17.8913 8.343V13.359C17.8913 13.701 17.8977 14.0303 17.9103 14.347C17.9357 14.6637 17.961 14.9613 17.9863 15.24C18.0243 15.506 18.056 15.7593 18.0813 16H16.2193C16.1813 15.7973 16.1307 15.544 16.0673 15.24C16.0167 14.9233 15.9787 14.6383 15.9533 14.385C15.8267 14.8157 15.5797 15.221 15.2123 15.601C14.8577 15.9683 14.3637 16.152 13.7303 16.152ZM14.5283 14.404C14.731 14.404 14.921 14.347 15.0983 14.233C15.2757 14.119 15.434 13.9923 15.5733 13.853C15.7127 13.701 15.8077 13.5807 15.8583 13.492V10.376C15.5417 10.5533 15.244 10.7307 14.9653 10.908C14.6867 11.0853 14.4397 11.2753 14.2243 11.478C14.0217 11.668 13.857 11.8897 13.7303 12.143C13.6163 12.3837 13.5593 12.6623 13.5593 12.979C13.5593 13.4223 13.6417 13.7707 13.8063 14.024C13.971 14.2773 14.2117 14.404 14.5283 14.404ZM23.3402 16.152C22.4408 16.152 21.7188 15.8733 21.1742 15.316C20.6295 14.746 20.3192 13.9987 20.2432 13.074L21.9342 12.561C22.0355 13.2577 22.2065 13.7833 22.4472 14.138C22.6878 14.48 23.0425 14.651 23.5112 14.651C23.8785 14.651 24.1572 14.5497 24.3472 14.347C24.5372 14.1317 24.6322 13.8467 24.6322 13.492C24.6322 13.1753 24.5625 12.8903 24.4232 12.637C24.2838 12.3837 24.0558 12.124 23.7392 11.858L21.8582 10.243C21.4782 9.91367 21.1552 9.54633 20.8892 9.141C20.6358 8.73567 20.5092 8.21 20.5092 7.564C20.5092 6.98133 20.6232 6.49367 20.8512 6.101C21.0918 5.69567 21.4212 5.39167 21.8392 5.189C22.2698 4.97367 22.7702 4.866 23.3402 4.866C24.2142 4.866 24.8792 5.151 25.3352 5.721C25.8038 6.27833 26.0698 6.956 26.1332 7.754L24.7652 8.267C24.7145 7.887 24.6385 7.55767 24.5372 7.279C24.4358 6.98767 24.2965 6.766 24.1192 6.614C23.9418 6.44933 23.7075 6.367 23.4162 6.367C23.0868 6.367 22.8208 6.481 22.6182 6.709C22.4282 6.92433 22.3332 7.184 22.3332 7.488C22.3332 7.678 22.3712 7.868 22.4472 8.058C22.5358 8.23533 22.6815 8.41267 22.8842 8.59L24.8222 10.376C25.0882 10.6167 25.3352 10.8763 25.5632 11.155C25.8038 11.4337 26.0002 11.7503 26.1522 12.105C26.3042 12.4597 26.3802 12.8713 26.3802 13.34C26.3802 13.9607 26.2535 14.48 26.0002 14.898C25.7468 15.316 25.3922 15.6327 24.9362 15.848C24.4802 16.0507 23.9482 16.152 23.3402 16.152ZM31.7766 16.152C31.2066 16.152 30.7443 16.0443 30.3896 15.829C30.0476 15.6137 29.7943 15.3097 29.6296 14.917C29.4776 14.5243 29.4016 14.062 29.4016 13.53V6.367H28.2426V5.018H29.4016V1.807H31.4346V5.018H33.2016V6.367H31.4346V13.397C31.4346 13.8277 31.5043 14.138 31.6436 14.328C31.7829 14.5053 32.0489 14.594 32.4416 14.594C32.5429 14.594 32.6569 14.5877 32.7836 14.575C32.9229 14.5623 33.0559 14.5497 33.1826 14.537V16.038C32.9293 16.076 32.6949 16.1013 32.4796 16.114C32.2643 16.1393 32.0299 16.152 31.7766 16.152ZM35.8163 16V0.609999H39.6353C40.56 0.609999 41.2947 0.780999 41.8393 1.123C42.3967 1.45233 42.802 1.93367 43.0553 2.567C43.3087 3.20033 43.4353 3.96667 43.4353 4.866C43.4353 5.67667 43.2897 6.37967 42.9983 6.975C42.7197 7.57033 42.3017 8.03267 41.7443 8.362C41.187 8.67867 40.4903 8.837 39.6543 8.837H37.9633V16H35.8163ZM37.9633 7.298H38.9513C39.572 7.298 40.0597 7.22833 40.4143 7.089C40.769 6.94967 41.0223 6.709 41.1743 6.367C41.3263 6.01233 41.4023 5.51833 41.4023 4.885C41.4023 4.15033 41.3453 3.58667 41.2313 3.194C41.13 2.80133 40.9083 2.529 40.5663 2.377C40.2243 2.225 39.6923 2.149 38.9703 2.149H37.9633V7.298ZM45.7812 16V5.018H47.8142V6.576C48.2196 5.90467 48.6249 5.455 49.0302 5.227C49.4356 4.999 49.8409 4.885 50.2462 4.885C50.2969 4.885 50.3412 4.885 50.3792 4.885C50.4299 4.885 50.4932 4.89133 50.5692 4.904V7.146C50.4172 7.08267 50.2399 7.032 50.0372 6.994C49.8472 6.94333 49.6509 6.918 49.4482 6.918C49.1316 6.918 48.8402 6.994 48.5742 7.146C48.3209 7.28533 48.0676 7.564 47.8142 7.982V16H45.7812ZM55.8187 16.152C54.9574 16.152 54.2924 15.9873 53.8237 15.658C53.3551 15.316 53.0257 14.822 52.8357 14.176C52.6584 13.5173 52.5697 12.713 52.5697 11.763V9.255C52.5697 8.27967 52.6647 7.469 52.8547 6.823C53.0447 6.177 53.3741 5.68933 53.8427 5.36C54.3241 5.03067 54.9827 4.866 55.8187 4.866C56.7434 4.866 57.4211 5.056 57.8517 5.436C58.2951 5.816 58.5864 6.367 58.7257 7.089C58.8651 7.79833 58.9347 8.65333 58.9347 9.654V10.547H54.6027V12.751C54.6027 13.1943 54.6407 13.5553 54.7167 13.834C54.8054 14.1127 54.9384 14.3217 55.1157 14.461C55.3057 14.5877 55.5464 14.651 55.8377 14.651C56.1417 14.651 56.3697 14.5813 56.5217 14.442C56.6864 14.29 56.7941 14.081 56.8447 13.815C56.9081 13.5363 56.9397 13.2133 56.9397 12.846V12.181H58.9157V12.599C58.9157 13.701 58.6814 14.5687 58.2127 15.202C57.7441 15.8353 56.9461 16.152 55.8187 16.152ZM54.6027 9.445H56.9397V8.457C56.9397 8.001 56.9144 7.621 56.8637 7.317C56.8131 7.00033 56.7054 6.766 56.5407 6.614C56.3887 6.44933 56.1417 6.367 55.7997 6.367C55.4704 6.367 55.2171 6.443 55.0397 6.595C54.8751 6.747 54.7611 7.00667 54.6977 7.374C54.6344 7.72867 54.6027 8.22267 54.6027 8.856V9.445ZM64.2718 16.152C63.3725 16.152 62.6505 15.8733 62.1058 15.316C61.5611 14.746 61.2508 13.9987 61.1748 13.074L62.8658 12.561C62.9671 13.2577 63.1381 13.7833 63.3788 14.138C63.6195 14.48 63.9741 14.651 64.4428 14.651C64.8101 14.651 65.0888 14.5497 65.2788 14.347C65.4688 14.1317 65.5638 13.8467 65.5638 13.492C65.5638 13.1753 65.4941 12.8903 65.3548 12.637C65.2155 12.3837 64.9875 12.124 64.6708 11.858L62.7898 10.243C62.4098 9.91367 62.0868 9.54633 61.8208 9.141C61.5675 8.73567 61.4408 8.21 61.4408 7.564C61.4408 6.98133 61.5548 6.49367 61.7828 6.101C62.0235 5.69567 62.3528 5.39167 62.7708 5.189C63.2015 4.97367 63.7018 4.866 64.2718 4.866C65.1458 4.866 65.8108 5.151 66.2668 5.721C66.7355 6.27833 67.0015 6.956 67.0648 7.754L65.6968 8.267C65.6461 7.887 65.5701 7.55767 65.4688 7.279C65.3675 6.98767 65.2281 6.766 65.0508 6.614C64.8735 6.44933 64.6391 6.367 64.3478 6.367C64.0185 6.367 63.7525 6.481 63.5498 6.709C63.3598 6.92433 63.2648 7.184 63.2648 7.488C63.2648 7.678 63.3028 7.868 63.3788 8.058C63.4675 8.23533 63.6131 8.41267 63.8158 8.59L65.7538 10.376C66.0198 10.6167 66.2668 10.8763 66.4948 11.155C66.7355 11.4337 66.9318 11.7503 67.0838 12.105C67.2358 12.4597 67.3118 12.8713 67.3118 13.34C67.3118 13.9607 67.1851 14.48 66.9318 14.898C66.6785 15.316 66.3238 15.6327 65.8678 15.848C65.4118 16.0507 64.8798 16.152 64.2718 16.152ZM72.3282 16.152C71.4289 16.152 70.7069 15.8733 70.1622 15.316C69.6176 14.746 69.3072 13.9987 69.2312 13.074L70.9222 12.561C71.0236 13.2577 71.1946 13.7833 71.4352 14.138C71.6759 14.48 72.0306 14.651 72.4992 14.651C72.8666 14.651 73.1452 14.5497 73.3352 14.347C73.5252 14.1317 73.6202 13.8467 73.6202 13.492C73.6202 13.1753 73.5506 12.8903 73.4112 12.637C73.2719 12.3837 73.0439 12.124 72.7272 11.858L70.8462 10.243C70.4662 9.91367 70.1432 9.54633 69.8772 9.141C69.6239 8.73567 69.4972 8.21 69.4972 7.564C69.4972 6.98133 69.6112 6.49367 69.8392 6.101C70.0799 5.69567 70.4092 5.39167 70.8272 5.189C71.2579 4.97367 71.7582 4.866 72.3282 4.866C73.2022 4.866 73.8672 5.151 74.3232 5.721C74.7919 6.27833 75.0579 6.956 75.1212 7.754L73.7532 8.267C73.7026 7.887 73.6266 7.55767 73.5252 7.279C73.4239 6.98767 73.2846 6.766 73.1072 6.614C72.9299 6.44933 72.6956 6.367 72.4042 6.367C72.0749 6.367 71.8089 6.481 71.6062 6.709C71.4162 6.92433 71.3212 7.184 71.3212 7.488C71.3212 7.678 71.3592 7.868 71.4352 8.058C71.5239 8.23533 71.6696 8.41267 71.8722 8.59L73.8102 10.376C74.0762 10.6167 74.3232 10.8763 74.5512 11.155C74.7919 11.4337 74.9882 11.7503 75.1402 12.105C75.2922 12.4597 75.3682 12.8713 75.3682 13.34C75.3682 13.9607 75.2416 14.48 74.9882 14.898C74.7349 15.316 74.3802 15.6327 73.9242 15.848C73.4682 16.0507 72.9362 16.152 72.3282 16.152ZM77.7437 16V13.739H79.7767V16H77.7437Z" fill="#222222"/>
</svg>
