<svg width="30" height="30" viewBox="0 0 30 30" fill="none" xmlns="http://www.w3.org/2000/svg">
<path d="M15 3C8.3828 3 3 8.38331 3 15C3 21.6167 8.3828 27 15 27C21.6172 27 27 21.6167 27 15C27 8.38331 21.6172 3 15 3ZM19.7705 15.4204L12.7705 19.9204C12.6885 19.9736 12.5938 20 12.5 20C12.418 20 12.335 19.9795 12.2608 19.939C12.0996 19.8511 12 19.6831 12 19.5V10.5C12 10.3169 12.0996 10.1489 12.2608 10.061C12.419 9.97411 12.6172 9.97945 12.7705 10.0796L19.7705 14.5796C19.9131 14.6714 20 14.8301 20 15C20 15.1699 19.9131 15.3286 19.7705 15.4204Z" fill="#7247CA"/>
</svg>
