<svg width="40" height="40" viewBox="0 0 40 40" fill="none" xmlns="http://www.w3.org/2000/svg">
<g clip-path="url(#clip0_13128_3416)">
<circle cx="20" cy="20" r="20" fill="#1C1C28"/>
<path d="M28.317 12.157C26.7873 11.4552 25.147 10.938 23.4319 10.6419C23.4007 10.6362 23.3695 10.6504 23.3534 10.679C23.1424 11.0542 22.9087 11.5437 22.7451 11.9285C20.9004 11.6523 19.0652 11.6523 17.2583 11.9285C17.0946 11.5352 16.8525 11.0542 16.6406 10.679C16.6245 10.6514 16.5933 10.6371 16.5621 10.6419C14.8479 10.9371 13.2076 11.4542 11.6769 12.157C11.6637 12.1628 11.6523 12.1723 11.6448 12.1847C8.53339 16.833 7.68105 21.3671 8.09918 25.845C8.10107 25.8669 8.11337 25.8879 8.1304 25.9012C10.1832 27.4087 12.1717 28.3239 14.1233 28.9306C14.1545 28.9401 14.1876 28.9287 14.2075 28.903C14.6691 28.2725 15.0806 27.6078 15.4335 26.9088C15.4543 26.8678 15.4344 26.8192 15.3919 26.8031C14.7391 26.5555 14.1176 26.2536 13.5197 25.9107C13.4724 25.8831 13.4687 25.8155 13.5122 25.7831C13.638 25.6888 13.7638 25.5907 13.884 25.4917C13.9057 25.4736 13.936 25.4698 13.9615 25.4812C17.8893 27.2745 22.1415 27.2745 26.023 25.4812C26.0485 25.4688 26.0788 25.4726 26.1015 25.4907C26.2216 25.5898 26.3475 25.6888 26.4742 25.7831C26.5177 25.8155 26.5149 25.8831 26.4676 25.9107C25.8697 26.2602 25.2482 26.5555 24.5945 26.8021C24.552 26.8183 24.533 26.8678 24.5538 26.9088C24.9143 27.6068 25.3258 28.2716 25.7789 28.902C25.7978 28.9287 25.8319 28.9401 25.8631 28.9306C27.8241 28.3239 29.8126 27.4087 31.8654 25.9012C31.8834 25.8879 31.8948 25.8679 31.8967 25.846C32.3971 20.669 31.0585 16.1721 28.3482 12.1856C28.3416 12.1723 28.3303 12.1628 28.317 12.157ZM16.02 23.1184C14.8375 23.1184 13.8631 22.0328 13.8631 20.6995C13.8631 19.3662 14.8186 18.2806 16.02 18.2806C17.2309 18.2806 18.1958 19.3758 18.1769 20.6995C18.1769 22.0328 17.2214 23.1184 16.02 23.1184ZM23.9947 23.1184C22.8123 23.1184 21.8379 22.0328 21.8379 20.6995C21.8379 19.3662 22.7933 18.2806 23.9947 18.2806C25.2056 18.2806 26.1705 19.3758 26.1516 20.6995C26.1516 22.0328 25.2056 23.1184 23.9947 23.1184Z" fill="#C8C7D8"/>
</g>
<defs>
<clipPath id="clip0_13128_3416">
<rect width="40" height="40" fill="white"/>
</clipPath>
</defs>
</svg>
