<svg width="40" height="40" viewBox="0 0 40 40" fill="none" xmlns="http://www.w3.org/2000/svg">
<g clip-path="url(#clip0_13128_3416)">
<circle cx="20" cy="20" r="20" fill="#1C1C28"/>
<path d="M15.5502 29.7507C24.6045 29.7507 29.5583 22.2474 29.5583 15.7426C29.5583 15.5317 29.5536 15.316 29.5442 15.1051C30.5079 14.4082 31.3395 13.545 32 12.556C31.1025 12.9553 30.1496 13.2161 29.1739 13.3295C30.2013 12.7136 30.9705 11.7462 31.3391 10.6065C30.3726 11.1793 29.3156 11.5833 28.2134 11.8013C27.4708 11.0123 26.489 10.4898 25.4197 10.3148C24.3504 10.1397 23.2532 10.3218 22.2977 10.8328C21.3423 11.3439 20.5818 12.1554 20.1338 13.142C19.6859 14.1287 19.5754 15.2353 19.8195 16.291C17.8625 16.1928 15.9479 15.6844 14.2 14.7988C12.452 13.9132 10.9097 12.6702 9.67297 11.1502C9.0444 12.234 8.85206 13.5164 9.13503 14.7368C9.418 15.9573 10.1551 17.0242 11.1964 17.7207C10.4146 17.6959 9.64998 17.4854 8.96563 17.1067V17.1676C8.96492 18.3049 9.3581 19.4073 10.0783 20.2875C10.7985 21.1677 11.8013 21.7713 12.9162 21.9957C12.1921 22.1939 11.432 22.2227 10.6948 22.0801C11.0095 23.0582 11.6216 23.9136 12.4458 24.5271C13.27 25.1405 14.2651 25.4813 15.2923 25.502C13.5484 26.8718 11.3942 27.6149 9.17656 27.6113C8.78329 27.6107 8.3904 27.5866 8 27.5392C10.2529 28.9845 12.8735 29.7521 15.5502 29.7507Z" fill="#C8C7D8"/>
</g>
<defs>
<clipPath id="clip0_13128_3416">
<rect width="40" height="40" fill="white"/>
</clipPath>
</defs>
</svg>
