<svg width="30" height="30" viewBox="0 0 30 30" fill="none" xmlns="http://www.w3.org/2000/svg">
<path d="M15 24C19.416 24 23 20.416 23 16C23 11.584 19.416 8 15 8C10.584 8 7 11.584 7 16C7 20.416 10.584 24 15 24ZM18.248 19.7707V19.7713C17.71 19.7713 16.0107 17.886 11.2347 18.8647C11.1087 18.8973 10.944 18.9487 10.8507 18.9487C10.2407 18.9487 10.124 18.036 10.78 17.8967C13.422 17.3133 16.122 17.3647 18.4247 18.742C18.974 19.0927 18.7407 19.7707 18.248 19.7707V19.7707ZM19.1167 17.6553C19.0413 17.6353 19.0633 17.7013 18.7187 17.52C16.702 16.3267 13.6967 15.8453 11.022 16.5713C10.8673 16.6133 10.7833 16.6553 10.638 16.6553C9.924 16.6553 9.73467 15.5813 10.5127 15.362C13.6567 14.4787 17.0293 14.994 19.3773 16.3907C19.6387 16.5453 19.742 16.746 19.742 17.026C19.7387 17.374 19.468 17.6553 19.1167 17.6553V17.6553ZM10.032 12.6653C13.0473 11.7827 17.6107 12.0613 20.448 13.7173C21.1753 14.1367 20.8893 15.1973 20.116 15.1973L20.1153 15.1967C19.9473 15.1967 19.844 15.1547 19.6987 15.0707C17.4033 13.7 13.296 13.3713 10.6387 14.1133C10.522 14.1453 10.3767 14.1967 10.222 14.1967C9.796 14.1967 9.47067 13.864 9.47067 13.4353C9.47067 12.9973 9.742 12.7493 10.032 12.6653V12.6653Z" fill="#222222"/>
</svg>
