<svg width="60" height="60" viewBox="0 0 60 60" fill="none" xmlns="http://www.w3.org/2000/svg">
<path fill-rule="evenodd" clip-rule="evenodd" d="M38.2374 12.0527H46.1359L20.7058 47.669H12.9385L38.2374 12.0527ZM28.9586 22.5476L21.515 12.0527H13.5858L25.075 28.2722L28.9586 22.5476ZM27.0114 22.5679L25.0466 25.4641L16.6799 13.6527H20.6882L27.0114 22.5679ZM16.0376 46.069H19.8822L43.0275 13.6527H39.0635L16.0376 46.069Z" fill="white"/>
<path fill-rule="evenodd" clip-rule="evenodd" d="M39.973 46.157H43.8142L34.8015 33.359L32.807 36.2081L39.973 46.157ZM30.8447 36.2214L39.1536 47.757H46.8979L34.7975 30.5745L30.8447 36.2214Z" fill="url(#paint0_linear_13123_3104)"/>
<path fill-rule="evenodd" clip-rule="evenodd" d="M30.3471 5.30998C30.3471 5.07329 30.1552 4.88141 29.9185 4.88141C29.6818 4.88141 29.4899 5.07329 29.4899 5.30998V5.33711C29.4899 5.5738 29.6818 5.76568 29.9185 5.76568C30.1552 5.76568 30.3471 5.5738 30.3471 5.33711V5.30998ZM30.3471 9.67721C30.3471 9.44052 30.1552 9.24864 29.9185 9.24864C29.6818 9.24864 29.4899 9.44052 29.4899 9.67721V9.73146C29.4899 9.96816 29.6818 10.16 29.9185 10.16C30.1552 10.16 30.3471 9.96816 30.3471 9.73146V9.67721ZM30.3471 14.0716C30.3471 13.8349 30.1552 13.643 29.9185 13.643C29.6818 13.643 29.4899 13.8349 29.4899 14.0716V14.1258C29.4899 14.3625 29.6818 14.5544 29.9185 14.5544C30.1552 14.5544 30.3471 14.3625 30.3471 14.1258V14.0716ZM30.3471 18.4659C30.3471 18.2292 30.1552 18.0374 29.9185 18.0374C29.6818 18.0374 29.4899 18.2292 29.4899 18.4659V18.4931C29.4899 18.7297 29.6818 18.9216 29.9185 18.9216C30.1552 18.9216 30.3471 18.7297 30.3471 18.4931V18.4659ZM30.3471 40.1465C30.3471 39.9098 30.1552 39.7179 29.9185 39.7179C29.6818 39.7179 29.4899 39.9098 29.4899 40.1465V40.1754C29.4899 40.4121 29.6818 40.604 29.9185 40.604C30.1552 40.604 30.3471 40.4121 30.3471 40.1754V40.1465ZM30.3471 44.807C30.3471 44.5703 30.1552 44.3784 29.9185 44.3784C29.6818 44.3784 29.4899 44.5703 29.4899 44.807V44.8649C29.4899 45.1016 29.6818 45.2935 29.9185 45.2935C30.1552 45.2935 30.3471 45.1016 30.3471 44.8649V44.807ZM30.3471 49.4965C30.3471 49.2598 30.1552 49.0679 29.9185 49.0679C29.6818 49.0679 29.4899 49.2598 29.4899 49.4965V49.5543C29.4899 49.791 29.6818 49.9829 29.9185 49.9829C30.1552 49.9829 30.3471 49.791 30.3471 49.5543V49.4965ZM30.3471 54.1859C30.3471 53.9492 30.1552 53.7573 29.9185 53.7573C29.6818 53.7573 29.4899 53.9492 29.4899 54.1859V54.2438C29.4899 54.4805 29.6818 54.6724 29.9185 54.6724C30.1552 54.6724 30.3471 54.4805 30.3471 54.2438V54.1859ZM30.3471 58.8754C30.3471 58.6387 30.1552 58.4468 29.9185 58.4468C29.6818 58.4468 29.4899 58.6387 29.4899 58.8754V58.9043C29.4899 59.141 29.6818 59.3329 29.9185 59.3329C30.1552 59.3329 30.3471 59.141 30.3471 58.9043V58.8754ZM59.3231 29.9283C59.3231 30.165 59.1312 30.3569 58.8945 30.3569H58.8686C58.6319 30.3569 58.44 30.165 58.44 29.9283C58.44 29.6916 58.6319 29.4997 58.8686 29.4997H58.8945C59.1312 29.4997 59.3231 29.6916 59.3231 29.9283ZM55.1483 29.9283C55.1483 30.165 54.9565 30.3569 54.7198 30.3569H54.6679C54.4312 30.3569 54.2393 30.165 54.2393 29.9283C54.2393 29.6916 54.4312 29.4997 54.6679 29.4997H54.7198C54.9565 29.4997 55.1483 29.6916 55.1483 29.9283ZM50.9477 29.9283C50.9477 30.165 50.7558 30.3569 50.5191 30.3569H50.4672C50.2305 30.3569 50.0387 30.165 50.0387 29.9283C50.0387 29.6916 50.2305 29.4997 50.4672 29.4997H50.5191C50.7558 29.4997 50.9477 29.6916 50.9477 29.9283ZM46.747 29.9283C46.747 30.165 46.5551 30.3569 46.3184 30.3569H46.2666C46.0299 30.3569 45.838 30.165 45.838 29.9283C45.838 29.6916 46.0299 29.4997 46.2666 29.4997H46.3184C46.5551 29.4997 46.747 29.6916 46.747 29.9283ZM42.5463 29.9283C42.5463 30.165 42.3545 30.3569 42.1178 30.3569H42.0659C41.8292 30.3569 41.6373 30.165 41.6373 29.9283C41.6373 29.6916 41.8292 29.4997 42.0659 29.4997H42.1178C42.3545 29.4997 42.5463 29.6916 42.5463 29.9283ZM38.3457 29.9283C38.3457 30.165 38.1538 30.3569 37.9171 30.3569H37.8912C37.6545 30.3569 37.4626 30.165 37.4626 29.9283C37.4626 29.6916 37.6545 29.4997 37.8912 29.4997H37.9171C38.1538 29.4997 38.3457 29.6916 38.3457 29.9283ZM22.1292 30.3569C22.3659 30.3569 22.5577 30.165 22.5577 29.9283C22.5577 29.6916 22.3659 29.4997 22.1292 29.4997H22.103C21.8663 29.4997 21.6744 29.6916 21.6744 29.9283C21.6744 30.165 21.8663 30.3569 22.103 30.3569H22.1292ZM17.9179 30.3569C18.1546 30.3569 18.3465 30.165 18.3465 29.9283C18.3465 29.6916 18.1546 29.4997 17.9179 29.4997H17.8656C17.6289 29.4997 17.4371 29.6916 17.4371 29.9283C17.4371 30.165 17.6289 30.3569 17.8656 30.3569H17.9179ZM13.6806 30.3569C13.9172 30.3569 14.1091 30.165 14.1091 29.9283C14.1091 29.6916 13.9172 29.4997 13.6806 29.4997H13.6282C13.3915 29.4997 13.1997 29.6916 13.1997 29.9283C13.1997 30.165 13.3915 30.3569 13.6282 30.3569H13.6806ZM9.44317 30.3569C9.67986 30.3569 9.87174 30.165 9.87174 29.9283C9.87174 29.6916 9.67986 29.4997 9.44317 29.4997H9.39085C9.15416 29.4997 8.96228 29.6916 8.96228 29.9283C8.96228 30.165 9.15416 30.3569 9.39085 30.3569H9.44317ZM5.20578 30.3569C5.44248 30.3569 5.63436 30.165 5.63436 29.9283C5.63436 29.6916 5.44248 29.4997 5.20578 29.4997H5.15347C4.91678 29.4997 4.7249 29.6916 4.7249 29.9283C4.7249 30.165 4.91678 30.3569 5.15347 30.3569H5.20578ZM0.968401 30.3569C1.2051 30.3569 1.39697 30.165 1.39697 29.9283C1.39697 29.6916 1.2051 29.4997 0.968401 29.4997H0.942243C0.705549 29.4997 0.513672 29.6916 0.513672 29.9283C0.513672 30.165 0.705549 30.3569 0.942243 30.3569H0.968401Z" fill="#55555E"/>
<path fill-rule="evenodd" clip-rule="evenodd" d="M29.8899 0.523743H29.9472C30.1839 0.523969 30.3756 0.71603 30.3753 0.952723C30.3751 1.18942 30.1831 1.38111 29.9464 1.38089H29.8907C29.654 1.38111 29.462 1.18942 29.4617 0.952723C29.4615 0.71603 29.6532 0.523969 29.8899 0.523743ZM25.8392 1.23424C25.8757 1.4681 25.7157 1.68729 25.4818 1.7238L25.427 1.73242C25.1932 1.7694 24.9737 1.60985 24.9367 1.37606C24.8998 1.14227 25.0593 0.922776 25.2931 0.885802L25.3496 0.876925C25.5835 0.840407 25.8026 1.00038 25.8392 1.23424ZM33.9979 1.23424C34.0344 1.00038 34.2536 0.840407 34.4875 0.876925L34.544 0.885802C34.7778 0.922776 34.9373 1.14227 34.9003 1.37606C34.8634 1.60985 34.6439 1.7694 34.4101 1.73242L34.3552 1.7238C34.1214 1.68729 33.9614 1.4681 33.9979 1.23424ZM38.434 2.2215C38.5068 1.9963 38.7485 1.87283 38.9737 1.94571L39.0279 1.96334C39.253 2.03666 39.376 2.27854 39.3027 2.50359C39.2293 2.72864 38.9875 2.85164 38.7624 2.77831L38.7097 2.76121C38.4845 2.68833 38.3611 2.44669 38.434 2.2215ZM21.4031 2.2215C21.476 2.44669 21.3525 2.68833 21.1273 2.76121L21.0747 2.77832C20.8496 2.85164 20.6077 2.72864 20.5344 2.50359C20.4611 2.27854 20.5841 2.03666 20.8091 1.96334L20.8634 1.94571C21.0886 1.87283 21.3302 1.9963 21.4031 2.2215ZM42.6586 3.89521C42.766 3.68429 43.0241 3.6004 43.235 3.70782L43.2858 3.73373C43.4965 3.84157 43.5798 4.09979 43.472 4.31049C43.3642 4.5212 43.106 4.60459 42.8953 4.49676L42.846 4.4716C42.6351 4.36418 42.5512 4.10612 42.6586 3.89521ZM17.1785 3.89521C17.2859 4.10612 17.202 4.36418 16.9911 4.4716L16.9418 4.49676C16.7311 4.60459 16.4729 4.5212 16.3651 4.3105C16.2572 4.09979 16.3406 3.84157 16.5513 3.73373L16.6021 3.70782C16.813 3.6004 17.071 3.68429 17.1785 3.89521ZM13.2693 6.21153C13.4083 6.40304 13.3659 6.67105 13.1743 6.81014L13.1296 6.84269C12.9384 6.98215 12.6703 6.94018 12.5308 6.74893C12.3914 6.55769 12.4333 6.2896 12.6246 6.15014L12.6706 6.11662C12.8621 5.97753 13.1302 6.02002 13.2693 6.21153ZM46.5678 6.21153C46.7069 6.02002 46.9749 5.97753 47.1664 6.11662L47.2125 6.15014C47.4037 6.2896 47.4457 6.55769 47.3062 6.74893C47.1668 6.94018 46.8987 6.98215 46.7074 6.84269L46.6627 6.81014C46.4712 6.67105 46.4287 6.40304 46.5678 6.21153ZM9.76931 9.10966C9.93652 9.27719 9.93626 9.54854 9.76873 9.71575L9.72961 9.75487C9.5624 9.9224 9.29104 9.92266 9.12352 9.75546C8.95599 9.58825 8.95572 9.31689 9.12293 9.14936L9.16322 9.10908C9.33075 8.94187 9.6021 8.94213 9.76931 9.10966ZM50.0678 9.10966C50.235 8.94213 50.5063 8.94187 50.6739 9.10908L50.7141 9.14936C50.8813 9.31689 50.8811 9.58825 50.7136 9.75546C50.546 9.92266 50.2747 9.9224 50.1075 9.75487L50.0683 9.71575C49.9008 9.54854 49.9006 9.27719 50.0678 9.10966ZM6.76279 12.517C6.95403 12.6564 6.99601 12.9245 6.85654 13.1158L6.824 13.1605C6.6849 13.352 6.41689 13.3945 6.22538 13.2554C6.03387 13.1163 5.99138 12.8483 6.13048 12.6568L6.16399 12.6107C6.30346 12.4195 6.57155 12.3775 6.76279 12.517ZM53.0743 12.517C53.2655 12.3775 53.5336 12.4195 53.6731 12.6107L53.7066 12.6568C53.8457 12.8483 53.8032 13.1163 53.6117 13.2554C53.4202 13.3945 53.1522 13.352 53.0131 13.1605L52.9805 13.1158C52.8411 12.9245 52.883 12.6564 53.0743 12.517ZM55.5127 16.3512C55.7234 16.2434 55.9816 16.3268 56.0895 16.5375L56.1154 16.5882C56.2228 16.7991 56.1389 17.0572 55.928 17.1646C55.7171 17.272 55.459 17.1881 55.3516 16.9772L55.3265 16.928C55.2186 16.7173 55.302 16.459 55.5127 16.3512ZM4.32435 16.3512C4.53505 16.459 4.61845 16.7173 4.51061 16.928L4.48546 16.9772C4.37804 17.1881 4.11997 17.272 3.90906 17.1646C3.69815 17.0572 3.61425 16.7991 3.72167 16.5882L3.74759 16.5375C3.85542 16.3268 4.11365 16.2434 4.32435 16.3512ZM2.51744 20.5205C2.74249 20.5939 2.86549 20.8357 2.79217 21.0608L2.77506 21.1135C2.70218 21.3387 2.46054 21.4621 2.23535 21.3893C2.01016 21.3164 1.88668 21.0747 1.95957 20.8496L1.97719 20.7953C2.05051 20.5702 2.29239 20.4472 2.51744 20.5205ZM57.3196 20.5205C57.5447 20.4472 57.7866 20.5702 57.8599 20.7953L57.8775 20.8496C57.9504 21.0747 57.8269 21.3164 57.6017 21.3893C57.3765 21.4621 57.1349 21.3387 57.062 21.1135L57.0449 21.0608C56.9716 20.8357 57.0946 20.5939 57.3196 20.5205ZM1.38992 24.9229C1.6237 24.9599 1.78325 25.1794 1.74628 25.4131L1.73766 25.468C1.70114 25.7018 1.48196 25.8618 1.2481 25.8253C1.01424 25.7888 0.854262 25.5696 0.89078 25.3357L0.899657 25.2793C0.936631 25.0455 1.15613 24.8859 1.38992 24.9229ZM58.4472 24.9229C58.6809 24.8859 58.9004 25.0455 58.9374 25.2793L58.9463 25.3357C58.9828 25.5696 58.8228 25.7888 58.589 25.8253C58.3551 25.8618 58.1359 25.7018 58.0994 25.468L58.0908 25.4132C58.0538 25.1794 58.2134 24.9599 58.4472 24.9229ZM0.966578 29.4479C1.20327 29.4481 1.39497 29.6402 1.39474 29.8769V29.9325C1.39497 30.1692 1.20327 30.3613 0.966578 30.3615C0.729885 30.3617 0.537824 30.17 0.537598 29.9333V29.876C0.537824 29.6393 0.729885 29.4476 0.966578 29.4479ZM58.8705 29.4479C59.1072 29.4476 59.2992 29.6393 59.2995 29.876V29.9333C59.2992 30.17 59.1072 30.3617 58.8705 30.3615C58.6338 30.3613 58.4421 30.1692 58.4423 29.9325V29.8769C58.4421 29.6402 58.6338 29.4481 58.8705 29.4479ZM1.2481 33.9841C1.48196 33.9475 1.70114 34.1075 1.73766 34.3414L1.74628 34.3962C1.78325 34.63 1.6237 34.8495 1.38991 34.8865C1.15613 34.9234 0.936631 34.7639 0.899657 34.5301L0.89078 34.4736C0.854262 34.2398 1.01424 34.0206 1.2481 33.9841ZM58.589 33.9841C58.8228 34.0206 58.9828 34.2398 58.9463 34.4736L58.9374 34.5301C58.9004 34.7639 58.6809 34.9234 58.4472 34.8865C58.2134 34.8495 58.0538 34.63 58.0908 34.3962L58.0994 34.3414C58.1359 34.1075 58.3551 33.9475 58.589 33.9841ZM2.23535 38.4201C2.46054 38.3472 2.70218 38.4707 2.77506 38.6959L2.79217 38.7486C2.86549 38.9736 2.74249 39.2155 2.51744 39.2888C2.29239 39.3621 2.05051 39.2391 1.97719 39.0141L1.95957 38.9598C1.88668 38.7346 2.01016 38.493 2.23535 38.4201ZM57.6017 38.4201C57.8269 38.493 57.9504 38.7346 57.8775 38.9598L57.8599 39.0141C57.7866 39.2391 57.5447 39.3621 57.3196 39.2888C57.0946 39.2155 56.9716 38.9736 57.0449 38.7486L57.062 38.6959C57.1349 38.4707 57.3765 38.3472 57.6017 38.4201ZM3.90906 42.6447C4.11997 42.5373 4.37804 42.6212 4.48546 42.8321L4.51061 42.8814C4.61845 43.0921 4.53505 43.3503 4.32435 43.4582C4.11365 43.566 3.85542 43.4826 3.74759 43.2719L3.72168 43.2211C3.61425 43.0102 3.69815 42.7522 3.90906 42.6447ZM55.928 42.6447C56.1389 42.7522 56.2228 43.0102 56.1154 43.2211L56.0895 43.2719C55.9817 43.4826 55.7234 43.566 55.5127 43.4582C55.302 43.3503 55.2186 43.0921 55.3265 42.8814L55.3516 42.8321C55.459 42.6212 55.7171 42.5373 55.928 42.6447ZM6.22538 46.554C6.41689 46.4149 6.6849 46.4574 6.824 46.6489L6.85654 46.6936C6.99601 46.8848 6.95403 47.1529 6.76279 47.2924C6.57155 47.4318 6.30346 47.3899 6.16399 47.1986L6.13048 47.1526C5.99138 46.9611 6.03387 46.6931 6.22538 46.554ZM53.6117 46.554C53.8032 46.6931 53.8457 46.9611 53.7066 47.1526L53.6731 47.1986C53.5336 47.3899 53.2655 47.4318 53.0743 47.2924C52.883 47.1529 52.8411 46.8848 52.9805 46.6936L53.0131 46.6489C53.1522 46.4574 53.4202 46.4149 53.6117 46.554ZM9.12352 50.0539C9.29104 49.8867 9.5624 49.887 9.72961 50.0545L9.76873 50.0936C9.93626 50.2608 9.93652 50.5322 9.76931 50.6997C9.6021 50.8672 9.33075 50.8675 9.16322 50.7003L9.12293 50.66C8.95572 50.4925 8.95599 50.2211 9.12352 50.0539ZM50.7136 50.0539C50.8811 50.2211 50.8813 50.4925 50.7141 50.66L50.6739 50.7003C50.5063 50.8675 50.235 50.8672 50.0678 50.6997C49.9006 50.5322 49.9008 50.2608 50.0683 50.0936L50.1075 50.0545C50.2747 49.887 50.546 49.8867 50.7136 50.0539ZM12.5308 53.0604C12.6703 52.8692 12.9384 52.8272 13.1296 52.9667L13.1743 52.9992C13.3659 53.1383 13.4083 53.4063 13.2693 53.5978C13.1302 53.7893 12.8621 53.8318 12.6706 53.6927L12.6246 53.6592C12.4333 53.5198 12.3914 53.2517 12.5308 53.0604ZM47.3062 53.0604C47.4457 53.2517 47.4037 53.5198 47.2125 53.6592L47.1664 53.6927C46.9749 53.8318 46.7069 53.7893 46.5678 53.5978C46.4287 53.4063 46.4712 53.1383 46.6627 52.9992L46.7074 52.9667C46.8987 52.8272 47.1668 52.8692 47.3062 53.0604ZM16.3651 55.4989C16.4729 55.2882 16.7311 55.2048 16.9418 55.3126L16.9911 55.3378C17.202 55.4452 17.2859 55.7032 17.1785 55.9142C17.0711 56.1251 16.813 56.209 16.6021 56.1015L16.5513 56.0756C16.3406 55.9678 16.2572 55.7096 16.3651 55.4989ZM43.472 55.4989C43.5798 55.7096 43.4965 55.9678 43.2858 56.0756L43.235 56.1015C43.0241 56.209 42.766 56.1251 42.6586 55.9142C42.5512 55.7032 42.6351 55.4452 42.846 55.3378L42.8953 55.3126C43.106 55.2048 43.3642 55.2882 43.472 55.4989ZM20.5344 57.3058C20.6077 57.0807 20.8496 56.9577 21.0747 57.031L21.1273 57.0482C21.3525 57.121 21.476 57.3627 21.4031 57.5879C21.3302 57.8131 21.0886 57.9365 20.8634 57.8637L20.8091 57.846C20.5841 57.7727 20.4611 57.5308 20.5344 57.3058ZM39.3027 57.3058C39.376 57.5308 39.253 57.7727 39.0279 57.846L38.9737 57.8636C38.7485 57.9365 38.5068 57.8131 38.434 57.5879C38.3611 57.3627 38.4845 57.121 38.7097 57.0482L38.7624 57.031C38.9875 56.9577 39.2293 57.0807 39.3027 57.3058ZM24.9367 58.4333C24.9737 58.1995 25.1932 58.04 25.427 58.0769L25.4818 58.0856C25.7157 58.1221 25.8757 58.3413 25.8392 58.5751C25.8026 58.809 25.5835 58.969 25.3496 58.9324L25.2931 58.9236C25.0593 58.8866 24.8998 58.6671 24.9367 58.4333ZM34.9003 58.4333C34.9373 58.6671 34.7778 58.8866 34.544 58.9236L34.4875 58.9324C34.2536 58.969 34.0344 58.809 33.9979 58.5751C33.9614 58.3413 34.1214 58.1221 34.3552 58.0856L34.4101 58.0769C34.6439 58.04 34.8633 58.1995 34.9003 58.4333ZM29.4617 58.8566C29.462 58.6199 29.654 58.4282 29.8907 58.4285H29.9464C30.1831 58.4282 30.3751 58.6199 30.3753 58.8566C30.3756 59.0933 30.1839 59.2854 29.9472 59.2856H29.8899C29.6532 59.2854 29.4615 59.0933 29.4617 58.8566Z" fill="white"/>
<path d="M30.8706 58.8571C30.8706 59.3831 30.4442 59.8094 29.9182 59.8094C29.3922 59.8094 28.9658 59.3831 28.9658 58.8571C28.9658 58.3311 29.3922 57.9047 29.9182 57.9047C30.4442 57.9047 30.8706 58.3311 30.8706 58.8571Z" fill="#6966FF"/>
<path d="M58.8708 30.8571C58.3449 30.8571 57.9185 30.4307 57.9185 29.9047C57.9185 29.3788 58.3449 28.9524 58.8708 28.9524C59.3968 28.9524 59.8232 29.3788 59.8232 29.9047C59.8232 30.4307 59.3968 30.8571 58.8708 30.8571Z" fill="#6966FF"/>
<path d="M30.8706 0.952221C30.8706 1.47821 30.4442 1.9046 29.9182 1.9046C29.3922 1.9046 28.9658 1.47821 28.9658 0.952221C28.9658 0.426236 29.3922 -0.000159989 29.9182 -0.000159943C30.4442 -0.000159897 30.8706 0.426236 30.8706 0.952221Z" fill="#6966FF"/>
<path d="M0.966053 30.8571C0.440068 30.8571 0.0136719 30.4307 0.013672 29.9047C0.0136721 29.3788 0.440068 28.9524 0.966053 28.9524C1.49204 28.9524 1.91843 29.3788 1.91843 29.9047C1.91843 30.4307 1.49204 30.8571 0.966053 30.8571Z" fill="#6966FF"/>
<defs>
<linearGradient id="paint0_linear_13123_3104" x1="40.8985" y1="45.0526" x2="28.0995" y2="27.4667" gradientUnits="userSpaceOnUse">
<stop stop-color="#6966FF"/>
<stop offset="1" stop-color="#6966FF" stop-opacity="0.36"/>
</linearGradient>
</defs>
</svg>
