<svg width="65" height="65" viewBox="0 0 65 65" fill="none" xmlns="http://www.w3.org/2000/svg">
<circle opacity="0.1" cx="32.5359" cy="32.4463" r="32" fill="#F0899C"/>
<path d="M22.7089 26.6289C22.6186 26.6289 22.53 26.6038 22.4531 26.5563C22.3763 26.5088 22.3142 26.4408 22.2738 26.36C22.2334 26.2792 22.2163 26.1887 22.2244 26.0987C22.2325 26.0088 22.2655 25.9228 22.3197 25.8505C22.6252 25.4506 22.956 25.0707 23.3102 24.7131C23.402 24.6283 23.5229 24.5821 23.6478 24.584C23.7727 24.586 23.8921 24.6359 23.9813 24.7234C24.0704 24.811 24.1224 24.9295 24.1265 25.0544C24.1307 25.1793 24.0866 25.3009 24.0034 25.3942C23.6789 25.7215 23.3758 26.0694 23.0961 26.4358C23.0509 26.4957 22.9924 26.5443 22.9252 26.5778C22.858 26.6113 22.784 26.6288 22.7089 26.6289Z" fill="#F0899C"/>
<path d="M32.7749 47.2713C29.39 47.2706 26.1332 45.9767 23.6707 43.6542C21.2083 41.3316 19.7263 38.156 19.5279 34.7768C19.5242 34.713 19.5332 34.649 19.5543 34.5886C19.5754 34.5281 19.6082 34.4725 19.6508 34.4247C19.6934 34.377 19.745 34.3381 19.8026 34.3103C19.8602 34.2825 19.9228 34.2663 19.9866 34.2626C20.0505 34.259 20.1145 34.268 20.1749 34.289C20.2353 34.3101 20.291 34.3429 20.3388 34.3855C20.3865 34.4281 20.4254 34.4797 20.4532 34.5373C20.481 34.595 20.4972 34.6575 20.5009 34.7214C20.6201 36.7428 21.2366 38.7035 22.2955 40.4295C23.3544 42.1555 24.823 43.5934 26.571 44.6155C28.319 45.6377 30.2923 46.2125 32.3158 46.289C34.3393 46.3655 36.3504 45.9412 38.1705 45.0539C39.9146 44.2021 41.4321 42.9494 42.599 41.3983C43.7659 39.8473 44.5489 38.042 44.884 36.1302C45.2191 34.2184 45.0967 32.2544 44.5269 30.399C43.9571 28.5436 42.956 26.8495 41.6056 25.4553C39.7021 23.4892 37.1965 22.2151 34.4864 21.8351C31.7763 21.4552 29.017 21.9912 26.6462 23.358C26.5723 23.401 26.4884 23.4237 26.4029 23.4237C26.2913 23.4248 26.1827 23.3875 26.0954 23.318C26.008 23.2485 25.9472 23.1511 25.9232 23.0421C25.8991 22.9332 25.9132 22.8192 25.9632 22.7194C26.0132 22.6196 26.0959 22.54 26.1976 22.494C27.962 21.485 29.9346 20.895 31.9632 20.7695C33.9918 20.6439 36.0221 20.9863 37.8974 21.7701C39.7726 22.554 41.4426 23.7583 42.7785 25.2901C44.1144 26.8219 45.0804 28.6402 45.6018 30.6047C46.1233 32.5691 46.1863 34.6271 45.7861 36.6198C45.3858 38.6125 44.5329 40.4865 43.2933 42.0972C42.0537 43.7079 40.4605 45.0122 38.6367 45.9093C36.813 46.8064 34.8074 47.2724 32.7749 47.2713Z" fill="#F0899C"/>
<path d="M20.4624 31.0801C20.4207 31.0802 20.3791 31.0748 20.3388 31.064C20.277 31.0478 20.219 31.0196 20.1681 30.981C20.1172 30.9424 20.0744 30.8941 20.0421 30.839C20.0099 30.7838 19.9888 30.7228 19.9801 30.6595C19.9714 30.5962 19.9753 30.5318 19.9915 30.47C20.1293 29.9532 20.3021 29.4465 20.5086 28.9531C20.5579 28.8339 20.6526 28.739 20.7718 28.6895C20.891 28.6401 21.0249 28.6399 21.1442 28.6892C21.2635 28.7385 21.3583 28.8332 21.4078 28.9524C21.4573 29.0716 21.4574 29.2055 21.4081 29.3248C21.2182 29.7774 21.0594 30.2424 20.9328 30.7167C20.9056 30.8207 20.8447 30.9128 20.7596 30.9786C20.6745 31.0443 20.57 31.08 20.4624 31.0801Z" fill="#F0899C"/>
<path d="M32.7755 42.8527C31.0259 42.8529 29.3155 42.3343 27.8607 41.3624C26.4059 40.3905 25.2719 39.009 24.6023 37.3926C23.9326 35.7763 23.7574 33.9976 24.0986 32.2816C24.4398 30.5656 25.2823 28.9894 26.5194 27.7522C27.7565 26.515 29.3327 25.6725 31.0487 25.3311C32.7647 24.9898 34.5433 25.165 36.1597 25.8345C37.7762 26.5041 39.1577 27.638 40.1297 29.0927C41.1016 30.5475 41.6204 32.2578 41.6203 34.0074C41.618 36.3525 40.6854 38.6009 39.0272 40.2592C37.369 41.9175 35.1206 42.8503 32.7755 42.8527ZM32.7755 26.1346C31.2183 26.1344 29.6961 26.596 28.4013 27.4609C27.1065 28.3259 26.0973 29.5554 25.5012 30.9939C24.9052 32.4325 24.7492 34.0155 25.0528 35.5427C25.3565 37.07 26.1062 38.4729 27.2072 39.574C28.3082 40.6751 29.711 41.425 31.2382 41.7289C32.7654 42.0327 34.3484 41.8769 35.7871 41.281C37.2257 40.6852 38.4553 39.6761 39.3204 38.3814C40.1856 37.0867 40.6473 35.5645 40.6473 34.0074C40.6451 31.9202 39.8151 29.9192 38.3393 28.4432C36.8636 26.9673 34.8626 26.137 32.7755 26.1346Z" fill="#F0899C"/>
<path d="M32.7754 38.4332C31.8998 38.4332 31.0439 38.1735 30.3159 37.6871C29.5879 37.2006 29.0204 36.5092 28.6854 35.7003C28.3503 34.8913 28.2626 34.0012 28.4335 33.1425C28.6043 32.2837 29.0259 31.4949 29.645 30.8758C30.2642 30.2566 31.053 29.835 31.9117 29.6642C32.7705 29.4933 33.6606 29.581 34.4696 29.9161C35.2785 30.2512 35.9699 30.8186 36.4564 31.5466C36.9428 32.2746 37.2024 33.1305 37.2024 34.0061C37.2014 35.1799 36.7347 36.3054 35.9047 37.1354C35.0747 37.9654 33.9492 38.4321 32.7754 38.4332ZM32.7754 30.5545C32.0923 30.5545 31.4245 30.7571 30.8564 31.1366C30.2884 31.5162 29.8457 32.0556 29.5843 32.6868C29.3229 33.3179 29.2545 34.0124 29.3877 34.6824C29.521 35.3524 29.85 35.9679 30.333 36.4509C30.8161 36.934 31.4315 37.263 32.1016 37.3962C32.7716 37.5295 33.4661 37.4611 34.0972 37.1997C34.7284 36.9383 35.2678 36.4955 35.6474 35.9275C36.0269 35.3595 36.2295 34.6917 36.2295 34.0086C36.2287 33.0927 35.8645 32.2146 35.2169 31.567C34.5694 30.9194 33.6913 30.5553 32.7754 30.5545Z" fill="#F0899C"/>
<path d="M33.3685 34.0075C33.2719 34.0075 33.1775 33.9787 33.0973 33.9248C33.0171 33.8709 32.9547 33.7944 32.9182 33.7049C32.8817 33.6155 32.8726 33.5172 32.8921 33.4226C32.9117 33.3279 32.959 33.2413 33.028 33.1736L46.1835 20.2944C46.2289 20.2486 46.2829 20.2123 46.3425 20.1876C46.402 20.1629 46.4659 20.1502 46.5304 20.1504C46.5948 20.1506 46.6586 20.1636 46.718 20.1886C46.7774 20.2137 46.8313 20.2503 46.8764 20.2963C46.9215 20.3423 46.9571 20.3969 46.9809 20.4568C47.0048 20.5167 47.0165 20.5807 47.0154 20.6452C47.0143 20.7096 47.0004 20.7732 46.9745 20.8323C46.9487 20.8913 46.9113 20.9446 46.8646 20.9891L33.709 33.8683C33.6181 33.9575 33.4958 34.0075 33.3685 34.0075Z" fill="#F0899C"/>
<path d="M48.4557 23.0971H48.4284L44.6937 22.8874C44.5758 22.8808 44.4644 22.8315 44.3802 22.7488C44.296 22.6661 44.2447 22.5556 44.2359 22.4379L43.9377 18.4716C43.9323 18.4013 43.9423 18.3307 43.9669 18.2647C43.9915 18.1987 44.0302 18.1388 44.0802 18.0892L47.0745 15.1138C47.1371 15.0518 47.2153 15.0078 47.3009 14.9868C47.3864 14.9657 47.4761 14.9683 47.5603 14.9942C47.6446 15.0201 47.7202 15.0684 47.7791 15.134C47.838 15.1995 47.8779 15.2798 47.8948 15.3663L48.5272 18.6287L51.4583 19.2368C51.5442 19.2548 51.6237 19.2957 51.6883 19.3552C51.7528 19.4147 51.8001 19.4906 51.825 19.5748C51.8499 19.659 51.8516 19.7483 51.8299 19.8334C51.8082 19.9185 51.7638 19.9961 51.7015 20.058L48.7991 22.9511C48.7543 22.9969 48.7009 23.0333 48.642 23.0583C48.583 23.0834 48.5197 23.0965 48.4557 23.0971ZM45.1743 21.9387L48.2664 22.1124L50.3783 20.0084L48.0144 19.518C47.9206 19.4985 47.8346 19.4517 47.7673 19.3835C47.7 19.3153 47.6543 19.2287 47.636 19.1346L47.1115 16.4463L44.9223 18.6185L45.1743 21.9387Z" fill="#F0899C"/>
<path d="M40.5509 49.0273C40.4731 49.0275 40.3964 49.0089 40.3273 48.9733C40.2581 48.9377 40.1985 48.8859 40.1535 48.8225L37.9896 45.7722C37.9508 45.7203 37.9228 45.6611 37.9073 45.5981C37.8917 45.5352 37.8889 45.4698 37.899 45.4057C37.9091 45.3417 37.9319 45.2803 37.966 45.2252C38.0001 45.1701 38.0449 45.1224 38.0978 45.0848C38.1507 45.0473 38.2105 45.0207 38.2738 45.0066C38.337 44.9925 38.4025 44.9912 38.4663 45.0027C38.5301 45.0143 38.5909 45.0385 38.6452 45.0739C38.6995 45.1093 38.7462 45.1552 38.7826 45.2089L40.6842 47.8885L42.7343 46.6333L40.8793 43.8054C40.8442 43.7519 40.8199 43.6921 40.8079 43.6293C40.7959 43.5665 40.7964 43.5019 40.8093 43.4393C40.8222 43.3766 40.8474 43.3171 40.8833 43.2642C40.9192 43.2113 40.9652 43.166 41.0187 43.1309C41.0721 43.0957 41.132 43.0715 41.1948 43.0594C41.2576 43.0474 41.3222 43.0479 41.3848 43.0609C41.4474 43.0738 41.5069 43.099 41.5598 43.1349C41.6127 43.1708 41.6581 43.2168 41.6932 43.2702L43.823 46.5175C43.8587 46.572 43.883 46.6331 43.8946 46.6971C43.9062 46.7611 43.9049 46.8269 43.8906 46.8904C43.8764 46.9539 43.8496 47.0139 43.8117 47.0668C43.7739 47.1198 43.7258 47.1646 43.6703 47.1986L40.8044 48.9534C40.7283 49.0009 40.6406 49.0265 40.5509 49.0273Z" fill="#F0899C"/>
<path d="M24.9999 49.0268C24.9103 49.0269 24.8224 49.0021 24.746 48.9553L21.8801 47.2006C21.8246 47.1665 21.7765 47.1217 21.7387 47.0688C21.7008 47.0158 21.674 46.9558 21.6597 46.8923C21.6455 46.8288 21.6441 46.7631 21.6558 46.6991C21.6674 46.635 21.6917 46.574 21.7274 46.5195L23.8577 43.2712C23.9286 43.1633 24.0396 43.088 24.1661 43.0618C24.2926 43.0357 24.4243 43.0609 24.5322 43.1318C24.6401 43.2028 24.7154 43.3137 24.7416 43.4402C24.7677 43.5667 24.7425 43.6984 24.6716 43.8064L22.8166 46.6328L24.8666 47.888L26.7678 45.2084C26.8048 45.1563 26.8517 45.112 26.9058 45.078C26.9599 45.0441 27.0202 45.0211 27.0832 45.0104C27.1462 44.9997 27.2107 45.0015 27.273 45.0158C27.3353 45.03 27.3941 45.0564 27.4462 45.0934C27.4983 45.1303 27.5426 45.1772 27.5766 45.2313C27.6106 45.2855 27.6336 45.3457 27.6443 45.4087C27.655 45.4717 27.6531 45.5362 27.6389 45.5985C27.6247 45.6608 27.5983 45.7197 27.5613 45.7718L25.3969 48.822C25.3519 48.8854 25.2924 48.9371 25.2233 48.9727C25.1543 49.0083 25.0777 49.0269 24.9999 49.0268Z" fill="#F0899C"/>
</svg>
