<svg width="65" height="65" viewBox="0 0 65 65" fill="none" xmlns="http://www.w3.org/2000/svg">
<circle opacity="0.1" cx="32.536" cy="32.4463" r="32" fill="#F0899C"/>
<g clip-path="url(#clip0_16_5851)">
<path d="M50.0971 48.7293L42.6324 28.8234C42.5795 28.6117 42.3677 28.5058 42.1559 28.5058C41.9442 28.5058 41.6795 28.6117 41.6265 28.8234L38.503 37.0293L31.9912 24.4293V22.0469H38.8207C38.9795 22.0469 39.0854 21.994 39.1912 21.8881L42.3148 18.6587C42.5265 18.4469 42.5265 18.1293 42.3148 17.9175L39.1912 14.6881C39.1383 14.5822 39.0324 14.5293 38.8736 14.5293H31.4618C31.1442 14.5293 30.9324 14.7411 30.9324 15.0587V24.4293L24.5265 36.9234L22.8854 33.1117C22.7795 32.8999 22.6206 32.794 22.4089 32.794C22.1971 32.794 21.9854 32.8999 21.9324 33.1117L15.2618 48.7293C15.2089 48.8881 15.2089 49.0999 15.3148 49.2058C15.4206 49.3117 15.5795 49.4705 15.7383 49.4705H49.6207C49.7795 49.4705 49.9383 49.3646 50.0442 49.2587C50.1501 49.0999 50.203 48.9411 50.0971 48.7293ZM41.2559 18.2881L38.6618 20.9881H31.9912V15.5881H38.6089L41.2559 18.2881ZM22.4089 34.6999L28.2854 48.4117H16.5324L22.4089 34.6999ZM29.3971 48.4117L25.0559 38.194L31.4618 25.6999L43.1618 48.4117C38.3442 48.4117 34.4795 48.4117 29.3971 48.4117ZM44.3795 48.4117L39.1912 38.2999L42.1559 30.4646L48.8795 48.4117H44.3795Z" fill="#F0899C"/>
<path d="M34.7971 19.8761C34.903 19.982 35.0089 20.035 35.1677 20.0879C35.3265 20.0879 35.4324 20.035 35.5383 19.982L38.5559 17.3879C38.7677 17.1761 38.8206 16.8585 38.6089 16.6467C38.3971 16.435 38.0795 16.382 37.8677 16.5938L35.2736 18.7644L34.4795 17.8114C34.2677 17.5997 33.9501 17.5467 33.7383 17.7585C33.5265 17.9703 33.4736 18.2879 33.6853 18.4997L34.7971 19.8761Z" fill="#F0899C"/>
<path d="M39.7207 46.3465C39.8795 46.6112 40.1972 46.7171 40.4619 46.5583C40.7266 46.3995 40.8324 46.0818 40.6736 45.8171L34.5324 34.6995C34.3736 34.4348 34.056 34.3289 33.7913 34.4877C33.5266 34.6465 33.4207 34.9642 33.5795 35.2289L39.7207 46.3465Z" fill="#F0899C"/>
</g>
<defs>
<clipPath id="clip0_16_5851">
<rect width="36" height="36" fill="white" transform="translate(14.6794 14)"/>
</clipPath>
</defs>
</svg>
