<svg width="30" height="30" viewBox="0 0 30 30" fill="none" xmlns="http://www.w3.org/2000/svg">
<path d="M11.9075 23.6C8.67436 23.5832 6 17.6285 6 14.5959C6 9.64216 10.1188 8.55766 11.7061 8.55766C12.4214 8.55766 13.1853 8.81112 13.859 9.0354C14.3301 9.19186 14.8174 9.35337 15.0884 9.35337C15.2506 9.35337 15.6328 9.21598 15.9703 9.09543C16.69 8.83692 17.5856 8.51562 18.6285 8.51562C18.6304 8.51562 18.6329 8.51562 18.6347 8.51562C19.4134 8.51562 21.7746 8.66982 23.1941 10.5932L23.5266 11.044L23.0481 11.3699C22.3644 11.8353 21.117 12.6843 21.117 14.366C21.117 16.3578 22.5297 17.1238 23.2084 17.4922C23.508 17.6548 23.8181 17.8225 23.8181 18.1892C23.8181 18.4287 21.7 23.5703 18.6241 23.5703C17.8715 23.5703 17.3395 23.3661 16.8702 23.1861C16.3954 23.0039 15.9858 22.8469 15.309 22.8469C14.9659 22.8469 14.5321 22.9932 14.0728 23.1486C13.4451 23.3599 12.7347 23.6 11.9286 23.6H11.9075Z" fill="#222222"/>
<path d="M18.9523 4C19.0324 6.60602 16.9667 8.41396 14.9035 8.30057C14.5635 6.22087 16.9665 4 18.9523 4Z" fill="#222222"/>
</svg>
